<?xml version="1.0" encoding="UTF-8" standalone="no"?>
<!-- Created with Inkscape (http://www.inkscape.org/) -->

<svg
   xmlns:dc="http://purl.org/dc/elements/1.1/"
   xmlns:cc="http://creativecommons.org/ns#"
   xmlns:rdf="http://www.w3.org/1999/02/22-rdf-syntax-ns#"
   xmlns:svg="http://www.w3.org/2000/svg"
   xmlns="http://www.w3.org/2000/svg"
   xmlns:sodipodi="http://sodipodi.sourceforge.net/DTD/sodipodi-0.dtd"
   xmlns:inkscape="http://www.inkscape.org/namespaces/inkscape"
   width="210mm"
   height="297mm"
   viewBox="0 0 744.09448819 1052.3622047"
   id="svg2"
   version="1.1"
   inkscape:version="0.91 r13725"
   sodipodi:docname="admInfo.svg"
   inkscape:export-filename="/home/hidekiw/Dropbox/Projetos Software/Sistema prova/ICONS/admInfo100x100.png"
   inkscape:export-xdpi="14.65736"
   inkscape:export-ydpi="14.65736">
  <defs
     id="defs4" />
  <sodipodi:namedview
     id="base"
     pagecolor="#ffffff"
     bordercolor="#666666"
     borderopacity="1.0"
     inkscape:pageopacity="0.0"
     inkscape:pageshadow="2"
     inkscape:zoom="0.35"
     inkscape:cx="24.175417"
     inkscape:cy="375.52575"
     inkscape:document-units="px"
     inkscape:current-layer="layer1"
     showgrid="false"
     inkscape:window-width="1366"
     inkscape:window-height="712"
     inkscape:window-x="0"
     inkscape:window-y="31"
     inkscape:window-maximized="1" />
  <metadata
     id="metadata7">
    <rdf:RDF>
      <cc:Work
         rdf:about="">
        <dc:format>image/svg+xml</dc:format>
        <dc:type
           rdf:resource="http://purl.org/dc/dcmitype/StillImage" />
        <dc:title></dc:title>
      </cc:Work>
    </rdf:RDF>
  </metadata>
  <g
     inkscape:label="Layer 1"
     inkscape:groupmode="layer"
     id="layer1">
    <rect
       style="opacity:1;fill:#2abfd4;fill-opacity:1;stroke:none;stroke-width:3;stroke-linejoin:bevel;stroke-miterlimit:4;stroke-dasharray:none;stroke-opacity:1"
       id="rect4149"
       width="442.85715"
       height="442.85715"
       x="94.285721"
       y="260.93359"
       rx="50"
       ry="50"
       inkscape:export-xdpi="20.322578"
       inkscape:export-ydpi="20.322578" />
    <path
       style="fill:#ffffff"
       d="m 310.66873,634.28226 c -41.55868,-0.56609 -75.48319,-5.97193 -92.74944,-14.77955 -8.81879,-4.49852 -15.28328,-10.65991 -17.83744,-17.00113 -1.13046,-2.80657 -1.25958,-4.09763 -1.24546,-12.45297 0.0141,-8.31191 0.15306,-9.66733 1.28308,-12.51142 6.70568,-16.87712 30.80784,-34.40479 68.91981,-50.12013 l 6.95682,-2.86862 0.87553,2.1012 c 4.60677,11.0558 10.47928,22.45587 16.14405,31.33981 l 2.79323,4.38054 4.91846,-9.74763 c 4.9076,-9.72606 10.17496,-18.71171 12.79177,-21.82161 l 1.38213,-1.64256 -2.11628,-0.38802 c -7.61795,-1.39677 -16.34424,-5.90816 -21.66361,-11.19984 -3.0715,-3.05552 -3.2476,-3.37203 -2.67179,-4.80213 0.91472,-2.27185 0.7662,-9.58341 -0.26346,-12.97 -0.65086,-2.14072 -2.01366,-4.2497 -4.90367,-7.58857 -13.25797,-15.31726 -23.43104,-37.3798 -26.78495,-58.08901 -2.38892,-14.75084 -1.46416,-29.8947 2.58745,-42.37173 7.43379,-22.89258 25.92899,-38.61711 49.8889,-42.4153 6.25985,-0.99232 18.1328,-0.8809 24.29313,0.22799 14.11423,2.54063 25.28053,8.36997 34.51114,18.01647 10.32354,10.78867 15.60523,22.73919 17.77944,40.22833 0.84101,6.76505 0.42002,19.87569 -0.87109,27.1281 -3.7671,21.1603 -13.75213,42.26173 -27.41754,57.94162 -4.03273,4.62721 -5.21676,8.65957 -5.0092,17.05943 0.15693,6.35057 0.12452,6.41017 -5.99044,11.01663 -4.56886,3.44177 -7.77507,4.98988 -13.98061,6.75045 -2.87992,0.81706 -5.32545,1.56115 -5.43452,1.65351 -0.10905,0.0923 0.52613,1.11771 1.41155,2.27854 3.18788,4.17954 8.47078,13.22538 12.62354,21.61517 2.3279,4.70302 4.36958,8.55095 4.53708,8.55095 1.22229,0 12.58701,-20.69252 16.95344,-30.86829 l 2.45777,-5.72773 2.01084,0.71506 c 14.95417,5.31771 36.07282,15.56817 46.97268,22.79934 14.83535,9.84206 24.55269,20.16795 27.36767,29.08161 1.42976,4.52729 1.77708,17.23503 0.59698,21.84142 -2.26737,8.85045 -8.343,15.02589 -20.31625,20.65006 -21.15678,9.93792 -58.85346,14.6976 -110.80074,13.99001 z"
       id="path4147"
       inkscape:connector-curvature="0"
       inkscape:export-xdpi="20.322578"
       inkscape:export-ydpi="20.322578" />
  </g>
</svg>
