<?xml version="1.0" encoding="UTF-8" standalone="no"?>
<!-- Created with Inkscape (http://www.inkscape.org/) -->

<svg
   xmlns:dc="http://purl.org/dc/elements/1.1/"
   xmlns:cc="http://creativecommons.org/ns#"
   xmlns:rdf="http://www.w3.org/1999/02/22-rdf-syntax-ns#"
   xmlns:svg="http://www.w3.org/2000/svg"
   xmlns="http://www.w3.org/2000/svg"
   xmlns:sodipodi="http://sodipodi.sourceforge.net/DTD/sodipodi-0.dtd"
   xmlns:inkscape="http://www.inkscape.org/namespaces/inkscape"
   width="210mm"
   height="297mm"
   viewBox="0 0 744.09448819 1052.3622047"
   id="svg5384"
   version="1.1"
   inkscape:version="0.91 r13725"
   sodipodi:docname="caixa.svg">
  <defs
     id="defs5386" />
  <sodipodi:namedview
     id="base"
     pagecolor="#ffffff"
     bordercolor="#666666"
     borderopacity="1.0"
     inkscape:pageopacity="0.0"
     inkscape:pageshadow="2"
     inkscape:zoom="0.35"
     inkscape:cx="-55"
     inkscape:cy="520"
     inkscape:document-units="px"
     inkscape:current-layer="layer1"
     showgrid="false"
     inkscape:window-width="1366"
     inkscape:window-height="712"
     inkscape:window-x="0"
     inkscape:window-y="31"
     inkscape:window-maximized="1" />
  <metadata
     id="metadata5389">
    <rdf:RDF>
      <cc:Work
         rdf:about="">
        <dc:format>image/svg+xml</dc:format>
        <dc:type
           rdf:resource="http://purl.org/dc/dcmitype/StillImage" />
        <dc:title></dc:title>
      </cc:Work>
    </rdf:RDF>
  </metadata>
  <g
     inkscape:label="Layer 1"
     inkscape:groupmode="layer"
     id="layer1">
    <rect
       style="opacity:1;fill:#2abfd4;fill-opacity:1;stroke:none;stroke-width:3;stroke-linejoin:bevel;stroke-miterlimit:4;stroke-dasharray:none;stroke-opacity:1"
       id="rect4149"
       width="442.85715"
       height="442.85715"
       x="161.42859"
       y="253.79077"
       rx="50"
       ry="50"
       inkscape:export-xdpi="20.322578"
       inkscape:export-ydpi="20.322578" />
    <path
       style="fill:#ffffff"
       d="m 246.79796,624.09787 c -3.52784,-1.66776 -5.68479,-3.85905 -7.29067,-7.40668 -1.13792,-2.51382 -1.19645,-3.77152 -1.20871,-25.97712 l -0.0129,-23.33537 150.02913,0 150.02912,0 -0.18369,23.04184 c -0.18033,22.61994 -0.20846,23.09563 -1.53604,25.97713 -1.77164,3.84532 -3.85743,6.00021 -7.45346,7.7002 l -2.93527,1.38768 -138.25112,0 -138.25112,0 -2.93527,-1.38768 z m 146.32048,-22.98596 c 2.91112,-1.21638 4.2203,-2.46804 5.5029,-5.26112 1.95474,-4.25684 0.90944,-10.56303 -2.21005,-13.3331 -1.7698,-1.57154 -5.2265,-2.81087 -7.83988,-2.81087 -2.61339,0 -6.07009,1.23933 -7.83989,2.81087 -1.72743,1.53391 -3.28688,5.41469 -3.30124,8.21523 -0.014,2.72034 1.19474,6.1623 2.798,7.96778 2.66093,2.99667 8.75896,4.13732 12.89016,2.41121 z M 238.28788,555.19733 c 0.007,-3.30383 23.60864,-138.51784 24.54671,-140.62865 2.79775,-6.29547 6.67649,-8.58493 15.35445,-9.06312 l 5.84008,-0.3218 0.17014,-18.26135 c 0.16637,-17.85721 0.20094,-18.32392 1.56212,-21.08859 0.87455,-1.77627 2.27707,-3.41296 3.77298,-4.4029 l 2.38098,-1.57566 44.70914,0 44.70914,0 2.34663,1.62621 c 1.29801,0.89952 2.91516,2.76458 3.61889,4.17368 1.22443,2.45168 1.27227,3.24521 1.27227,21.10564 l 0,18.55818 57.97154,0.16323 57.97154,0.16324 2.61433,1.46763 c 3.17845,1.78432 5.98179,5.33811 7.5796,9.60864 1.0103,2.70027 24.14871,135.41713 24.14871,138.51173 0,0.9277 -9.63336,0.99124 -150.28572,0.99124 -142.73873,0 -150.28561,-0.0516 -150.28353,-1.02735 z m 194.65833,-24.39545 c 1.35311,-1.57468 1.41538,-2.01668 1.41538,-10.04663 0,-8.29257 -0.0197,-8.41919 -1.54769,-9.94718 -1.53301,-1.533 -1.62904,-1.5475 -10.12667,-1.52901 -11.75375,0.0256 -11.80779,0.0798 -11.80779,11.84671 0,11.44354 0.2307,11.65449 12.52715,11.45502 8.10494,-0.13147 8.12759,-0.13569 9.53962,-1.77891 z m 34.63616,0 c 1.35311,-1.57468 1.41538,-2.01668 1.41538,-10.04663 0,-8.29257 -0.0197,-8.41919 -1.54768,-9.94718 -1.53302,-1.533 -1.62905,-1.5475 -10.12668,-1.52901 -11.67867,0.0254 -11.80778,0.14954 -11.80778,11.35207 0,11.81572 0.38536,12.18378 12.52714,11.96456 8.09698,-0.14619 8.12898,-0.15221 9.53962,-1.79381 z m 34.53842,0.22393 c 1.4945,-1.40568 1.51312,-1.53069 1.51312,-10.15336 0,-8.48632 -0.0403,-8.77041 -1.44095,-10.17111 -1.4007,-1.4007 -1.68479,-1.44095 -10.1711,-1.44095 -8.62268,0 -8.74768,0.0186 -10.15337,1.51312 -1.33056,1.41463 -1.43586,2.0106 -1.61773,9.15593 -0.31357,12.31864 0.23991,12.8872 12.33041,12.66625 7.58644,-0.13864 8.10946,-0.22471 9.53962,-1.56988 z m -69.17458,-34.86009 c 1.35301,-1.57455 1.41538,-2.017 1.41538,-10.04095 0,-8.09616 -0.0511,-8.4489 -1.43961,-9.94718 -1.43354,-1.54682 -1.47615,-1.55328 -10.12667,-1.53468 -9.06007,0.0195 -9.89701,0.22297 -11.23292,2.73124 -0.85733,1.6097 -0.92397,16.24969 -0.0811,17.82454 1.31208,2.45166 3.3188,2.91623 11.92533,2.76085 8.09698,-0.14619 8.12898,-0.15221 9.53962,-1.79382 z m 34.63616,0 c 1.3549,-1.57675 1.41538,-2.01061 1.41538,-10.15336 0,-8.24856 -0.0436,-8.54987 -1.44095,-9.94717 -1.402,-1.402 -1.67574,-1.44045 -10.12668,-1.42228 -11.83756,0.0255 -11.9253,0.11056 -11.89371,11.53704 0.0319,11.55688 0.50568,12.00318 12.50634,11.78239 8.09549,-0.14896 8.12924,-0.15531 9.53962,-1.79662 z m 34.53842,0.22393 c 1.4945,-1.40568 1.51312,-1.53068 1.51312,-10.15336 0,-8.48632 -0.0403,-8.7704 -1.44095,-10.1711 -1.4007,-1.4007 -1.68479,-1.44095 -10.1711,-1.44095 -8.62268,0 -8.74768,0.0186 -10.15337,1.51312 -1.33056,1.41463 -1.43586,2.0106 -1.61773,9.15593 -0.31357,12.31864 0.23991,12.8872 12.33041,12.66625 7.58644,-0.13864 8.10946,-0.22471 9.53962,-1.56989 z m -137.03153,-73.1326 0,-40.21317 -28.4721,0 -28.4721,0 0,40.21317 0,40.21317 28.4721,0 28.4721,0 0,-40.21317 z m -46.37723,22.89509 0,-6.16407 17.61161,0 17.6116,0 0,6.16407 0,6.16406 -17.6116,0 -17.61161,0 0,-6.16406 z m 0,-22.89509 0,-6.16407 17.61161,0 17.6116,0 0,6.16407 0,6.16406 -17.6116,0 -17.61161,0 0,-6.16406 z m 0,-23.18862 0,-5.87054 17.61161,0 17.6116,0 0,5.87054 0,5.87054 -17.6116,0 -17.61161,0 0,-5.87054 z m 180.82426,62.51513 c 2.40459,-1.24347 3.12961,-2.81482 2.37618,-5.14998 -0.33514,-1.03872 -1.1417,-6.85938 -1.79236,-12.93479 -0.65065,-6.07541 -1.45493,-11.55429 -1.78727,-12.17529 -1.56507,-2.92435 -1.2386,-2.90239 -43.14029,-2.90239 -25.69918,0 -39.49404,0.20724 -40.23625,0.60445 -2.53771,1.35815 -2.90275,3.34924 -2.90275,15.83305 0,13.10273 0.28733,14.38192 3.69759,16.46127 1.8155,1.10697 3.2431,1.14602 41.97498,1.14814 34.61739,0.002 40.32983,-0.11895 41.81017,-0.88446 z M 408.53123,394.1063 c -2.75709,-0.79837 -5.46329,-2.92958 -7.13576,-5.61961 l -1.37652,-2.21402 -0.18847,-25.24331 c -0.13463,-18.0318 0.008,-25.91414 0.49752,-27.59151 0.9853,-3.3728 3.2914,-6.13481 6.1943,-7.41889 2.41469,-1.06814 4.38095,-1.10864 46.49139,-0.95759 l 43.97007,0.15773 2.34634,1.62621 c 1.31011,0.90802 2.91587,2.76659 3.63593,4.20837 1.27909,2.56113 1.28825,2.79928 1.1255,29.24497 l -0.16409,26.66282 -1.62246,2.34054 c -0.89236,1.28729 -2.74158,2.98153 -4.10938,3.76497 l -2.48691,1.42444 -42.56139,0.10493 c -27.32872,0.0674 -43.29676,-0.10802 -44.61607,-0.49005 z m 72.20759,-34.54457 0,-11.15402 -28.4721,0 -28.4721,0 0,11.15402 0,11.15402 28.4721,0 28.4721,0 0,-11.15402 z"
       id="path5943"
       inkscape:connector-curvature="0" />
  </g>
</svg>
