<?xml version="1.0" encoding="UTF-8" standalone="no"?>
<!-- Created with Inkscape (http://www.inkscape.org/) -->

<svg
   xmlns:dc="http://purl.org/dc/elements/1.1/"
   xmlns:cc="http://creativecommons.org/ns#"
   xmlns:rdf="http://www.w3.org/1999/02/22-rdf-syntax-ns#"
   xmlns:svg="http://www.w3.org/2000/svg"
   xmlns="http://www.w3.org/2000/svg"
   xmlns:sodipodi="http://sodipodi.sourceforge.net/DTD/sodipodi-0.dtd"
   xmlns:inkscape="http://www.inkscape.org/namespaces/inkscape"
   width="210mm"
   height="297mm"
   viewBox="0 0 744.09448819 1052.3622047"
   id="svg4789"
   version="1.1"
   inkscape:version="0.91 r13725"
   sodipodi:docname="customers.svg">
  <defs
     id="defs4791" />
  <sodipodi:namedview
     id="base"
     pagecolor="#ffffff"
     bordercolor="#666666"
     borderopacity="1.0"
     inkscape:pageopacity="0.0"
     inkscape:pageshadow="2"
     inkscape:zoom="0.35"
     inkscape:cx="-55"
     inkscape:cy="520"
     inkscape:document-units="px"
     inkscape:current-layer="layer1"
     showgrid="false"
     inkscape:window-width="1366"
     inkscape:window-height="712"
     inkscape:window-x="0"
     inkscape:window-y="31"
     inkscape:window-maximized="1" />
  <metadata
     id="metadata4794">
    <rdf:RDF>
      <cc:Work
         rdf:about="">
        <dc:format>image/svg+xml</dc:format>
        <dc:type
           rdf:resource="http://purl.org/dc/dcmitype/StillImage" />
        <dc:title></dc:title>
      </cc:Work>
    </rdf:RDF>
  </metadata>
  <g
     inkscape:label="Layer 1"
     inkscape:groupmode="layer"
     id="layer1">
    <rect
       style="opacity:1;fill:#2abfd4;fill-opacity:1;stroke:none;stroke-width:3;stroke-linejoin:bevel;stroke-miterlimit:4;stroke-dasharray:none;stroke-opacity:1"
       id="rect4149"
       width="442.85715"
       height="442.85715"
       x="138.57143"
       y="205.21935"
       rx="50"
       ry="50"
       inkscape:export-xdpi="20.322578"
       inkscape:export-ydpi="20.322578" />
    <path
       style="fill:#ffffff"
       d="m 316.99112,581.87743 c -6.12282,-2.0949 -6.07293,-1.1492 -6.1559,-116.69352 l -0.0799,-111.33014 -4.3502,5.08962 c -2.3926,2.79929 -15.93126,19.40482 -30.0859,36.9012 l -25.73571,31.81159 3.46261,5.99701 c 1.90443,3.29835 4.58718,9.74759 5.96167,14.33166 1.37449,4.58404 3.13777,8.71254 3.91841,9.17441 0.81431,0.48182 1.41937,15.32639 1.41937,34.82326 0,28.95515 -0.35318,34.32159 -2.38698,36.2686 -1.96161,1.87791 -6.52143,2.28514 -25.58738,2.28514 -20.72954,0 -23.47404,-0.28947 -25.76974,-2.71796 -2.28914,-2.42153 -2.51322,-6.34663 -2.05479,-35.99088 0.48667,-31.46961 0.72604,-33.8246 4.41657,-43.45215 4.91051,-12.8101 9.06772,-21.08557 10.59242,-21.08557 0.6485,0 1.94589,-2.72612 2.88307,-6.05803 1.20736,-4.29245 11.44788,-18.17222 35.13731,-47.62429 18.38834,-22.86145 35.43086,-43.36581 37.87225,-45.56525 4.13101,-3.72162 5.34286,-3.99899 17.4716,-3.99899 10.20501,0 13.9075,0.58276 17.06466,2.68594 11.98199,7.98193 33.18104,7.79962 42.60657,-0.36641 3.6033,-3.12181 26.89409,-3.29202 31.46071,-0.22992 1.71397,1.14929 15.0243,16.91801 29.57851,35.04159 14.55422,18.12358 30.37462,37.63261 35.15647,43.3534 5.0654,6.06004 9.12715,12.52579 9.73138,15.49107 0.57041,2.79929 2.88767,7.37995 5.14945,10.17924 4.5996,5.6927 9.05806,15.82463 9.13146,20.75145 0.0266,1.78336 1.0519,4.51271 2.27848,6.06522 1.80851,2.28903 2.23018,9.05138 2.23018,35.76549 0,30.06761 -0.24245,33.15281 -2.77783,35.3494 -2.32029,2.01024 -6.46502,2.40665 -25.16317,2.40665 -12.52595,0 -23.67941,-0.66302 -25.32345,-1.50534 -2.77624,-1.4224 -2.93812,-3.37888 -2.93812,-35.50949 0,-26.20576 0.48741,-34.94829 2.12532,-38.12098 1.16892,-2.26426 4.29356,-9.51071 6.94365,-16.10323 l 4.81827,-11.98641 -29.34874,-36.56405 -29.34872,-36.56406 -0.7595,112.09845 c -0.60487,89.27638 -1.16152,112.48318 -2.73418,113.98838 -2.72581,2.6089 -21.81802,2.5285 -25.13365,-0.1058 -2.23846,-1.7785 -2.51194,-6.9397 -2.51194,-47.40726 0,-29.48514 -0.59049,-47.03312 -1.68367,-50.03524 -1.65328,-4.54027 -7.8958,-8.89787 -12.74672,-8.89787 -4.85092,0 -11.09343,4.3576 -12.74671,8.89787 -1.09349,3.00292 -1.68368,20.57572 -1.68368,50.13083 0,45.37727 -0.009,45.51357 -3.37596,47.77087 -3.27775,2.1978 -15.95039,2.9575 -20.92785,1.2545 z M 253.14694,451.64716 c -0.0257,-1.79954 -1.57346,-6.87098 -3.43954,-11.26987 -3.04493,-7.17779 -3.81049,-7.95109 -7.46532,-7.54076 -2.23986,0.25145 -5.52057,-0.28473 -7.29048,-1.19154 -2.4492,-1.25485 -3.76571,-1.21362 -5.51044,0.1726 -3.26063,2.59061 -7.71052,11.40082 -8.94804,17.71594 l -1.05536,5.38553 16.87792,0 c 16.50419,0 16.87689,-0.0724 16.83126,-3.2719 z m 237.80985,-2.18126 c -0.58086,-2.99924 -2.83862,-8.60092 -5.01726,-12.44817 -3.56505,-6.29551 -4.34976,-6.88832 -7.84714,-5.92802 -2.13728,0.58683 -5.92027,1.17944 -8.40664,1.3169 -3.70164,0.20465 -4.98617,1.27866 -7.08999,5.92803 -1.41313,3.12294 -3.0435,8.13202 -3.62306,11.13126 l -1.05375,5.45316 17.04697,0 17.04697,0 -1.0561,-5.45316 z M 339.56965,324.34352 c -11.30641,-5.63667 -18.02157,-16.17269 -18.02157,-28.27566 0,-20.09115 14.22319,-33.52049 35.41419,-33.4376 10.86096,0.0425 20.65529,5.24735 27.55217,14.64172 3.86949,5.27068 4.65769,7.85742 5.08521,16.68863 0.46914,9.69086 0.13944,11.02838 -4.53229,18.38595 -6.44599,10.15192 -17.23916,16.05911 -29.34204,16.05911 -5.80841,0 -10.24524,-1.11559 -16.15567,-4.06215 z"
       id="path5348"
       inkscape:connector-curvature="0"
       inkscape:export-xdpi="20.322578"
       inkscape:export-ydpi="20.322578" />
  </g>
</svg>
