<?xml version="1.0" encoding="UTF-8" standalone="no"?>
<!-- Created with Inkscape (http://www.inkscape.org/) -->

<svg
   xmlns:dc="http://purl.org/dc/elements/1.1/"
   xmlns:cc="http://creativecommons.org/ns#"
   xmlns:rdf="http://www.w3.org/1999/02/22-rdf-syntax-ns#"
   xmlns:svg="http://www.w3.org/2000/svg"
   xmlns="http://www.w3.org/2000/svg"
   xmlns:sodipodi="http://sodipodi.sourceforge.net/DTD/sodipodi-0.dtd"
   xmlns:inkscape="http://www.inkscape.org/namespaces/inkscape"
   width="210mm"
   height="297mm"
   viewBox="0 0 744.09448819 1052.3622047"
   id="svg4194"
   version="1.1"
   inkscape:version="0.91 r13725"
   sodipodi:docname="product.svg">
  <defs
     id="defs4196" />
  <sodipodi:namedview
     id="base"
     pagecolor="#ffffff"
     bordercolor="#666666"
     borderopacity="1.0"
     inkscape:pageopacity="0.0"
     inkscape:pageshadow="2"
     inkscape:zoom="0.7"
     inkscape:cx="132.26809"
     inkscape:cy="522.18041"
     inkscape:document-units="px"
     inkscape:current-layer="layer1"
     showgrid="false"
     inkscape:window-width="1366"
     inkscape:window-height="712"
     inkscape:window-x="0"
     inkscape:window-y="31"
     inkscape:window-maximized="1" />
  <metadata
     id="metadata4199">
    <rdf:RDF>
      <cc:Work
         rdf:about="">
        <dc:format>image/svg+xml</dc:format>
        <dc:type
           rdf:resource="http://purl.org/dc/dcmitype/StillImage" />
        <dc:title></dc:title>
      </cc:Work>
    </rdf:RDF>
  </metadata>
  <g
     inkscape:label="Layer 1"
     inkscape:groupmode="layer"
     id="layer1">
    <rect
       style="opacity:1;fill:#2abfd4;fill-opacity:1;stroke:none;stroke-width:3;stroke-linejoin:bevel;stroke-miterlimit:4;stroke-dasharray:none;stroke-opacity:1"
       id="rect4149"
       width="442.85715"
       height="442.85715"
       x="135.71429"
       y="225.21935"
       rx="50"
       ry="50"
       inkscape:export-xdpi="20.322582"
       inkscape:export-ydpi="20.322582" />
    <path
       style="fill:#ffffff"
       d="m 294.22616,609.61757 c -10.90194,-3.23131 -19.17217,-11.63615 -22.2095,-22.57095 -2.47041,-8.89383 -0.2207,-20.61157 5.23311,-27.25699 0.68072,-0.82945 1.23768,-1.72976 1.23768,-2.00068 0,-0.27092 -2.10987,-0.49258 -4.68859,-0.49258 -5.83845,0 -8.81091,-1.26701 -10.63901,-4.53488 -2.06166,-3.68539 -1.82524,-4.79853 4.92913,-23.20793 0.69979,-1.90732 1.73537,-4.78831 2.30128,-6.40219 2.67433,-7.62675 8.05278,-22.2938 8.65008,-23.58876 0.3673,-0.79632 1.60397,-2.0966 2.74814,-2.88952 1.43621,-0.99529 1.97823,-1.70332 1.75058,-2.28675 -0.18136,-0.4648 -1.73185,-4.92648 -3.44554,-9.91485 -3.13264,-9.11875 -8.46269,-24.50876 -16.53725,-47.74965 -2.39576,-6.89569 -5.51671,-15.89876 -6.93542,-20.00683 -1.41872,-4.10807 -3.95472,-11.43058 -5.63554,-16.27223 -1.68081,-4.84165 -3.83965,-11.08379 -4.79742,-13.87141 -0.95775,-2.78762 -3.66312,-10.59028 -6.01192,-17.33925 -2.3488,-6.74898 -5.96838,-17.16748 -8.04352,-23.15223 -2.07514,-5.98476 -3.83807,-10.94393 -3.91761,-11.02039 -0.13171,-0.12662 -9.8257,-3.91935 -17.75063,-6.94487 -11.40505,-4.35412 -27.77062,-10.9741 -29.21494,-11.81763 -0.94281,-0.55063 -2.43776,-2.03065 -3.32213,-3.28895 -1.37778,-1.96036 -1.60793,-2.771 -1.60793,-5.66374 0,-2.89956 0.22899,-3.70175 1.62274,-5.68481 2.18631,-3.11075 5.0963,-4.69883 8.6305,-4.70997 2.92409,-0.009 2.83569,-0.0402 26.55934,9.29666 6.16211,2.4252 15.13087,5.94518 19.93059,7.82218 5.54741,2.1694 9.45375,4.03419 10.72224,5.11852 2.18205,1.86526 2.59037,2.82842 8.55017,20.16835 1.81538,5.28181 3.85958,11.16382 4.54268,13.07113 0.68309,1.90732 2.60865,7.42921 4.27902,12.27086 1.67036,4.84166 3.58756,10.36354 4.26044,12.27086 1.37757,3.9048 5.60422,16.12049 11.99884,34.67852 2.37607,6.89569 4.88445,14.09815 5.57416,16.00547 0.68971,1.90731 2.61737,7.4292 4.28369,12.27085 5.25358,15.26485 9.43667,27.354 10.7072,30.94391 0.67503,1.90732 2.46974,7.06908 3.98824,11.47059 1.5185,4.4015 2.93056,8.18294 3.13792,8.40319 0.20735,0.22025 32.17573,0.40985 71.04083,0.42133 l 70.66382,0.0209 3.5948,-10.82489 c 1.97711,-5.95368 3.59766,-11.12498 3.60123,-11.49177 0.005,-0.52981 -13.00443,-0.6669 -63.28665,-0.6669 -48.33639,0 -63.80757,-0.15414 -65.47027,-0.6523 -4.27375,-1.28044 -7.81598,-6.06704 -7.80846,-10.55153 0.003,-1.69752 2.19026,-6.38673 3.53695,-7.58225 2.99491,-2.65871 0.0414,-2.55454 72.43221,-2.55454 44.5517,0 67.58779,-0.18184 67.80615,-0.53523 0.18193,-0.29437 2.2031,-6.47648 4.49141,-13.73802 l 4.16062,-13.2028 -78.4852,-0.26675 -78.48521,-0.26676 -2.52002,-1.48135 c -1.59641,-0.93842 -3.03643,-2.36253 -3.92902,-3.88562 -1.22165,-2.08458 -1.37995,-2.86041 -1.19057,-5.83465 0.18049,-2.83448 0.49766,-3.77537 1.82584,-5.41638 0.88407,-1.0923 2.27132,-2.48171 3.08276,-3.08756 1.47399,-1.10054 1.55102,-1.10168 84.08904,-1.23991 l 82.6137,-0.13835 3.47863,-10.79872 c 1.91329,-5.93929 3.63884,-11.45894 3.83464,-12.26588 l 0.35597,-1.46717 -97.31971,0 -97.31968,0 -2.69163,-1.34129 c -7.3317,-3.65354 -7.37883,-14.61018 -0.0796,-18.50727 l 2.29497,-1.2253 106.16961,0 106.16958,0 2.42275,1.2393 c 2.90974,1.48843 5.34481,5.02473 5.68946,8.26242 0.175,1.64367 -0.35286,4.07207 -1.99348,9.17132 -1.22735,3.81464 -2.67371,8.3762 -3.21416,10.1368 -0.5404,1.7606 -2.5326,8.00273 -4.42706,13.87141 -8.43648,26.13452 -17.36609,53.95383 -19.26573,60.0205 -0.68914,2.20075 -3.22297,10.12346 -5.63078,17.60602 -2.40781,7.48255 -5.77018,17.98767 -7.47194,23.3447 -3.46059,10.89366 -4.17502,12.3762 -7.10589,14.7451 l -2.05019,1.65711 -82.75594,0.12833 -82.75594,0.12833 -0.66186,1.73897 c -0.36403,0.95644 -1.61993,4.37988 -2.79088,7.60765 -1.17096,3.22777 -2.98412,8.19899 -4.02924,11.04715 -1.04512,2.84816 -1.90022,5.54909 -1.90022,6.00205 0,0.739 8.88924,0.82448 86.56291,0.83235 l 86.56288,0.009 2.13406,1.19383 c 4.46686,2.49883 5.69806,8.28708 2.68695,12.63214 -2.0559,2.96665 -4.43218,3.76252 -11.23397,3.76252 -3.07512,0 -5.59112,0.14551 -5.59112,0.32336 0,0.17785 0.68888,1.1982 1.53085,2.26744 3.89653,4.94838 6.02585,11.6207 6.06858,19.01658 0.0512,8.80648 -2.98385,16.01248 -9.45017,22.43905 -6.38613,6.34686 -13.51519,9.30513 -22.42422,9.30513 -8.93514,0 -15.90286,-2.89852 -22.41114,-9.32287 -6.2829,-6.20186 -9.34061,-13.49159 -9.32515,-22.23156 0.0127,-7.17443 2.29093,-14.31755 6.20236,-19.44667 0.69244,-0.908 1.25897,-1.80831 1.25897,-2.00068 0,-0.19238 -15.60533,-0.34978 -34.67851,-0.34978 -19.07319,0 -34.67852,0.14551 -34.67852,0.32336 0,0.17785 0.68888,1.1982 1.53085,2.26744 4.03229,5.12077 6.05868,11.4216 6.10512,18.98307 0.0275,4.47447 -0.20691,6.08311 -1.40718,9.65813 -3.49978,10.42407 -11.47057,18.12228 -21.73477,20.99152 -5.11552,1.42997 -12.66649,1.4726 -17.30523,0.0977 z m 14.42525,-17.83773 c 3.17176,-1.47697 6.9427,-5.52654 7.70636,-8.27576 0.85928,-3.09352 0.63446,-8.08152 -0.47429,-10.52295 -1.15539,-2.54411 -4.12678,-5.67927 -6.58971,-6.9529 -2.23203,-1.15423 -8.03152,-1.55294 -10.98122,-0.75494 -3.00518,0.813 -6.8249,4.32989 -8.43014,7.76179 -3.31797,7.0936 0.28161,16.07942 7.58321,18.93034 3.67691,1.43566 7.85299,1.36638 11.18579,-0.18558 z m 117.90695,0 c 3.20027,-1.49025 6.74935,-5.32636 7.62174,-8.23815 1.5335,-5.11835 0.27132,-10.96294 -3.12281,-14.46036 -3.32808,-3.42935 -4.90743,-4.04464 -10.38793,-4.04696 -4.04957,-0.002 -5.10301,0.1854 -6.72577,1.19459 -6.55149,4.07435 -8.95431,10.91445 -6.3135,17.97264 2.71574,7.25848 11.80242,10.89647 18.92827,7.57824 z"
       id="path4753"
       inkscape:connector-curvature="0"
       inkscape:export-xdpi="20.322582"
       inkscape:export-ydpi="20.322582" />
  </g>
</svg>
